<svg xmlns="http://www.w3.org/2000/svg" width="24.102" height="32.901" viewBox="0 0 24.102 32.901">
  <g id="Group_14" data-name="Group 14" transform="matrix(-0.999, 0.035, -0.035, -0.999, 24.102, 32.098)">
    <path id="Path_7" data-name="Path 7" d="M17.329.1c2.719-.863,5.649,4.355,5.666,5.23.029,1.491-4.564,6.108-5.236,5.746-1.058-.568-4.165-1.612-4.707-1.46-1.993.559-7.171,9.527-6.659,11.533.139.545,2.6,2.714,3.617,3.346.649.4-1.052,6.688-2.358,7.408-.766.422-6.75.494-7.362-2.292C-1.819,20,7.957,3.071,17.329.1Z" transform="translate(0 0)" fill="#be1622" fill-rule="evenodd"/>
  </g>
</svg>
