<svg xmlns="http://www.w3.org/2000/svg" width="102.049" height="77.596" viewBox="0 0 102.049 77.596">
  <g id="Group_13196" data-name="Group 13196" transform="translate(-205.919 -258.464)">
    <g id="Group_13194" data-name="Group 13194" transform="translate(205.919 258.464)">
      <path id="Path_4587" data-name="Path 4587" d="M474.878,298.173A29.093,29.093,0,0,1,447.739,316.8c-3.915,0-8.5-.124-10.486-.183a57.658,57.658,0,0,0-3.738-10.61,39.241,39.241,0,0,0-4.583-7.292c-4.276-5.607-5.542-11.509-1.567-17.476.4-.615,2.372-2.951,4.927-5.9l15.193-16.263a1.652,1.652,0,0,1,1.256-.53,28.933,28.933,0,0,1,26.086,18.6.634.634,0,0,1-.384.816l-7.99,2.892a8.426,8.426,0,0,1-9.025-2.289,13.257,13.257,0,0,0-22.16,4.607,14.141,14.141,0,0,0-.787,4.518,13.858,13.858,0,0,0,.787,4.518,13.274,13.274,0,0,0,22.2,4.5,8.337,8.337,0,0,1,8.971-2.295l8.061,2.939A.637.637,0,0,1,474.878,298.173Z" transform="translate(-373.994 -258.526)"/>
      <path id="Path_4588" data-name="Path 4588" d="M394.707,401.795H378.6c-5.244-13.8-4.635-22.243,1.875-29.3.9-1.025,1.808-1.989,2.772-2.954-1.868,4.882-.422,9.7,3.135,14.345a39.543,39.543,0,0,1,4.581,7.294C393.012,394.922,394.707,401.795,394.707,401.795Z" transform="translate(-335.717 -343.698)" fill="#be1622"/>
      <path id="Path_4589" data-name="Path 4589" d="M273.235,258.464l-20.775.023a1.507,1.507,0,0,0-1.193.583l-17.175,18.524.96-4.641A12.017,12.017,0,0,0,223.284,258.5h-5.5l-11.849,57.264a.663.663,0,0,0,.649.8h18.632a1,1,0,0,0,.979-.8l1.3-6.3,8.126-9.676,8.835,16.77c-4.942-13.321-4.556-22.363,1.833-29.3,9.068-9.906,23.645-24.365,27.292-27.967A.488.488,0,0,0,273.235,258.464Z" transform="translate(-205.919 -258.464)"/>
    </g>
    <g id="Group_13195" data-name="Group 13195" transform="translate(206.226 327.681)">
      <path id="Path_4590" data-name="Path 4590" d="M213.679,561.728a2.4,2.4,0,0,1-.377,1.324,2.5,2.5,0,0,1-1.109.914,4.133,4.133,0,0,1-1.73.334,3.883,3.883,0,0,1-1.974-.452,2.583,2.583,0,0,1-.9-.872,1.981,1.981,0,0,1-.35-1.06.727.727,0,0,1,.74-.723.623.623,0,0,1,.436.165,1.342,1.342,0,0,1,.31.492,3.094,3.094,0,0,0,.33.647,1.337,1.337,0,0,0,.508.429,1.871,1.871,0,0,0,.858.168,1.921,1.921,0,0,0,1.182-.34,1.022,1.022,0,0,0,.456-.848.887.887,0,0,0-.244-.653,1.606,1.606,0,0,0-.634-.386c-.264-.086-.607-.182-1.043-.281a7.759,7.759,0,0,1-1.466-.479,2.354,2.354,0,0,1-.931-.746,1.929,1.929,0,0,1-.343-1.175,2.011,2.011,0,0,1,.363-1.189,2.31,2.31,0,0,1,1.056-.8,4.292,4.292,0,0,1,1.624-.281,4.051,4.051,0,0,1,1.288.185,2.741,2.741,0,0,1,.9.492,2.126,2.126,0,0,1,.528.644,1.556,1.556,0,0,1,.165.657.773.773,0,0,1-.211.528.655.655,0,0,1-.515.234.611.611,0,0,1-.429-.139,1.832,1.832,0,0,1-.317-.462,2.078,2.078,0,0,0-.528-.716,1.557,1.557,0,0,0-1-.258,1.7,1.7,0,0,0-1.023.281.814.814,0,0,0-.39.67.689.689,0,0,0,.132.419,1.077,1.077,0,0,0,.363.3,2.633,2.633,0,0,0,.469.2c.159.046.423.115.786.208a12.143,12.143,0,0,1,1.241.356,3.71,3.71,0,0,1,.944.469,1.88,1.88,0,0,1,.607.7A2.233,2.233,0,0,1,213.679,561.728Z" transform="translate(-207.241 -555.921)" fill="#be1622"/>
      <path id="Path_4591" data-name="Path 4591" d="M292.7,561.463h-1.5v2.294a1.055,1.055,0,0,1-.238.746.756.756,0,0,1-.581.254.777.777,0,0,1-.6-.251,1.071,1.071,0,0,1-.224-.739v-6.243a1,1,0,0,1,.251-.776,1.125,1.125,0,0,1,.786-.231H292.7a5.582,5.582,0,0,1,1.439.142,2.2,2.2,0,0,1,.858.459,2.111,2.111,0,0,1,.548.786,2.759,2.759,0,0,1,.191,1.043,2.314,2.314,0,0,1-.766,1.878A3.459,3.459,0,0,1,292.7,561.463Zm-.4-3.714h-1.1v2.476h1.1a3.261,3.261,0,0,0,.971-.122,1.131,1.131,0,0,0,.594-.4,1.372,1.372,0,0,0-.112-1.6A2.092,2.092,0,0,0,292.3,557.749Z" transform="translate(-270.402 -556.378)" fill="#be1622"/>
      <path id="Path_4592" data-name="Path 4592" d="M372.949,555.921a4.316,4.316,0,0,1,2.159.512,3.3,3.3,0,0,1,1.374,1.453,4.948,4.948,0,0,1,.462,2.215,5.35,5.35,0,0,1-.258,1.707,3.659,3.659,0,0,1-.759,1.331,3.281,3.281,0,0,1-1.248.861,4.908,4.908,0,0,1-3.4-.006,3.374,3.374,0,0,1-1.255-.865,3.679,3.679,0,0,1-.759-1.344,5.4,5.4,0,0,1-.258-1.7,5.264,5.264,0,0,1,.271-1.713,3.677,3.677,0,0,1,.772-1.324,3.391,3.391,0,0,1,1.241-.838A4.4,4.4,0,0,1,372.949,555.921Zm2.331,4.166a3.809,3.809,0,0,0-.291-1.542,2.155,2.155,0,0,0-.819-.987,2.258,2.258,0,0,0-1.221-.333,2.235,2.235,0,0,0-.911.185,2.084,2.084,0,0,0-.72.538,2.691,2.691,0,0,0-.475.9,4.211,4.211,0,0,0-.172,1.235,4.324,4.324,0,0,0,.172,1.251,2.621,2.621,0,0,0,.5.924,2.1,2.1,0,0,0,.726.551,2.256,2.256,0,0,0,.9.182,2.187,2.187,0,0,0,1.155-.317,2.158,2.158,0,0,0,.845-.971A3.831,3.831,0,0,0,375.28,560.087Z" transform="translate(-331.365 -555.921)" fill="#be1622"/>
      <path id="Path_4593" data-name="Path 4593" d="M459.955,561.152h-.574v2.605a1.1,1.1,0,0,1-.225.756.778.778,0,0,1-.594.244.754.754,0,0,1-.607-.254,1.119,1.119,0,0,1-.218-.746v-6.233a.863.863,0,0,1,1.01-1.007h2.667a8.481,8.481,0,0,1,.944.046,2.4,2.4,0,0,1,.706.191,1.964,1.964,0,0,1,.673.459,2.021,2.021,0,0,1,.449.693,2.36,2.36,0,0,1,.152.838,2.009,2.009,0,0,1-.515,1.446.889.889,0,1,0-.713,1.452,6.9,6.9,0,0,1,.707.964,7.369,7.369,0,0,1,.489.924,1.711,1.711,0,0,1,.172.568.592.592,0,0,1-.1.317.716.716,0,0,1-.277.248.868.868,0,0,1-.409.092.816.816,0,0,1-.469-.129,1.338,1.338,0,0,1-.324-.33c-.086-.132-.211-.327-.363-.588l-.66-1.093a6.247,6.247,0,0,0-.634-.918,1.536,1.536,0,0,0-.561-.429A1.918,1.918,0,0,0,459.955,561.152Zm.938-3.4H459.38v2.229h1.466a4.068,4.068,0,0,0,1-.1,1.141,1.141,0,0,0,.614-.35.981.981,0,0,0,.218-.677,1.063,1.063,0,0,0-.172-.594,1.088,1.088,0,0,0-.475-.383A3.384,3.384,0,0,0,460.892,557.749Z" transform="translate(-399.447 -556.378)" fill="#be1622"/>
      <path id="Path_4594" data-name="Path 4594" d="M541.673,557.871h-1.789v5.887a1.069,1.069,0,0,1-.231.753.75.75,0,0,1-.581.247.769.769,0,0,1-.594-.247,1.06,1.06,0,0,1-.231-.753v-5.887h-1.789a.918.918,0,0,1-.627-.185.621.621,0,0,1-.2-.489.631.631,0,0,1,.211-.5.936.936,0,0,1,.621-.182h5.216a.921.921,0,0,1,.634.188.682.682,0,0,1-.007.981A.93.93,0,0,1,541.673,557.871Z" transform="translate(-459.212 -556.378)" fill="#be1622"/>
      <path id="Path_4595" data-name="Path 4595" d="M623.244,561.728a2.4,2.4,0,0,1-.376,1.324,2.5,2.5,0,0,1-1.109.914,4.13,4.13,0,0,1-1.73.334,3.884,3.884,0,0,1-1.974-.452,2.581,2.581,0,0,1-.9-.872,1.98,1.98,0,0,1-.35-1.06.727.727,0,0,1,.74-.723.622.622,0,0,1,.436.165,1.339,1.339,0,0,1,.31.492,3.113,3.113,0,0,0,.33.647,1.339,1.339,0,0,0,.509.429,1.869,1.869,0,0,0,.858.168,1.922,1.922,0,0,0,1.182-.34,1.023,1.023,0,0,0,.455-.848.886.886,0,0,0-.244-.653,1.606,1.606,0,0,0-.634-.386c-.264-.086-.608-.182-1.043-.281a7.767,7.767,0,0,1-1.466-.479,2.356,2.356,0,0,1-.931-.746,1.928,1.928,0,0,1-.343-1.175,2.009,2.009,0,0,1,.363-1.189,2.307,2.307,0,0,1,1.056-.8,4.293,4.293,0,0,1,1.624-.281,4.048,4.048,0,0,1,1.287.185,2.738,2.738,0,0,1,.9.492,2.121,2.121,0,0,1,.528.644,1.556,1.556,0,0,1,.165.657.774.774,0,0,1-.211.528.655.655,0,0,1-.515.234.61.61,0,0,1-.429-.139,1.824,1.824,0,0,1-.317-.462,2.075,2.075,0,0,0-.528-.716,1.556,1.556,0,0,0-1-.258,1.7,1.7,0,0,0-1.023.281.814.814,0,0,0-.39.67.692.692,0,0,0,.132.419,1.08,1.08,0,0,0,.363.3,2.635,2.635,0,0,0,.469.2c.158.046.422.115.785.208a12.107,12.107,0,0,1,1.242.356,3.715,3.715,0,0,1,.944.469,1.88,1.88,0,0,1,.607.7A2.236,2.236,0,0,1,623.244,561.728Z" transform="translate(-521.502 -555.921)" fill="#be1622"/>
    </g>
  </g>
</svg>
