<svg xmlns="http://www.w3.org/2000/svg" width="24" height="24" viewBox="0 0 24 24">
  <path id="Exclusion_3" data-name="Exclusion 3" d="M12,24A12,12,0,0,1,3.515,3.515,12,12,0,1,1,12,24ZM9.312,5.523a3.3,3.3,0,0,0-3.3,3.3v5.37a3.3,3.3,0,0,0,3.3,3.3h5.37a3.3,3.3,0,0,0,3.3-3.3V8.823a3.309,3.309,0,0,0-3.3-3.3Zm5.355,11H9.325a2.35,2.35,0,0,1-2.347-2.347V8.836A2.35,2.35,0,0,1,9.325,6.489h5.342a2.35,2.35,0,0,1,2.347,2.347v5.342A2.35,2.35,0,0,1,14.667,16.526ZM12,8.354a3.155,3.155,0,1,0,3.155,3.155A3.158,3.158,0,0,0,12,8.354Zm3.262-.813a.707.707,0,1,0,.707.707A.708.708,0,0,0,15.258,7.541ZM12,13.564a2.057,2.057,0,1,1,2.057-2.057A2.06,2.06,0,0,1,12,13.564Z" fill="#ede9e1"/>
</svg>
