<svg xmlns="http://www.w3.org/2000/svg" width="27.099" height="27.099" viewBox="0 0 27.099 27.099">
  <g id="filter" transform="translate(0 -0.001)">
    <path id="Path_4659" data-name="Path 4659" d="M8.751,23.712a.828.828,0,0,1-.353-.078.844.844,0,0,1-.494-.769V13.922a1.423,1.423,0,0,0-.413-1L.91,6.347A3.082,3.082,0,0,1,0,4.151V1.977A1.978,1.978,0,0,1,1.976,0H19.76a1.978,1.978,0,0,1,1.976,1.976V4.128a3.121,3.121,0,0,1-.949,2.235l-6.805,6.566a1.418,1.418,0,0,0-.433,1.017v4.494A3.1,3.1,0,0,1,12.466,20.8L9.3,23.508a.848.848,0,0,1-.552.2ZM1.976,1.694a.282.282,0,0,0-.282.282V4.151a1.4,1.4,0,0,0,.414,1l6.579,6.575a3.124,3.124,0,0,1,.91,2.2v7.1l1.765-1.513a1.411,1.411,0,0,0,.494-1.072V13.946a3.121,3.121,0,0,1,.949-2.235L19.61,5.146a1.417,1.417,0,0,0,.431-1.016V1.976a.282.282,0,0,0-.282-.282Zm0,0" fill="#fff"/>
    <path id="Path_4660" data-name="Path 4660" d="M307.983,269.55h-7.339a1.978,1.978,0,0,1-1.976-1.976v-9.6A1.978,1.978,0,0,1,300.644,256h7.339a1.978,1.978,0,0,1,1.976,1.976v9.6A1.978,1.978,0,0,1,307.983,269.55Zm-7.339-11.856a.282.282,0,0,0-.282.282v9.6a.282.282,0,0,0,.282.282h7.339a.282.282,0,0,0,.282-.282v-9.6a.282.282,0,0,0-.282-.282Zm0,0" transform="translate(-282.86 -242.45)" fill="#fff"/>
    <path id="Path_4661" data-name="Path 4661" d="M366.338,337.694h-2.823a.847.847,0,1,1,0-1.694h2.823a.847.847,0,1,1,0,1.694Zm0,0" transform="translate(-343.473 -318.216)" fill="#fff"/>
    <path id="Path_4662" data-name="Path 4662" d="M366.338,401.694h-2.823a.847.847,0,1,1,0-1.694h2.823a.847.847,0,1,1,0,1.694Zm0,0" transform="translate(-343.473 -378.828)" fill="#fff"/>
  </g>
</svg>
