<svg xmlns="http://www.w3.org/2000/svg" width="314.784" height="145.171" viewBox="0 0 314.784 145.171"><g transform="translate(-691.898 -314.225)"><g transform="translate(798.168 360.166)"><path d="M623.628,446.738h-104.9a1.927,1.927,0,0,1-1.846-1.376l-16.9-56.652a1.927,1.927,0,0,1,1.846-2.477H640.568a1.926,1.926,0,0,1,1.846,2.478l-16.939,56.652A1.928,1.928,0,0,1,623.628,446.738Zm-103.464-3.854H622.193l15.788-52.8H504.418Z" transform="translate(-499.906 -386.233)" fill="#1c1c1c"/></g><g transform="translate(810.241 416.818)"><path d="M648.5,536.928H534.678a1.927,1.927,0,0,1-1.053-.313c-3.66-2.389-5.575-5.227-5.692-8.438-.2-5.586,5.341-9.872,5.577-10.052a1.927,1.927,0,0,1,2.338,3.063h0c-1.169.9-4.179,3.885-4.064,6.86.068,1.764,1.239,3.453,3.483,5.026H648.5a1.927,1.927,0,0,1,0,3.854Z" transform="translate(-527.928 -517.731)" fill="#1c1c1c"/></g><g transform="translate(767.816 332.301)"><path d="M461.731,353.272a1.928,1.928,0,0,1-1.851-1.4l-6.438-22.453-20.135-3.638v5.292l19.127,2.441a1.927,1.927,0,0,1-.488,3.823l-20.809-2.656a1.927,1.927,0,0,1-1.683-1.912v-9.294a1.927,1.927,0,0,1,2.269-1.9l23.584,4.26a1.927,1.927,0,0,1,1.51,1.365l6.769,23.605a1.929,1.929,0,0,1-1.853,2.459Z" transform="translate(-429.453 -321.553)" fill="#1c1c1c"/></g><g transform="translate(899.979 441.913)"><path d="M745.273,593.464a8.747,8.747,0,1,1,9.048-8.742A8.909,8.909,0,0,1,745.273,593.464Zm0-13.63a4.9,4.9,0,1,0,5.194,4.888A5.054,5.054,0,0,0,745.273,579.833Z" transform="translate(-736.225 -575.98)" fill="#1c1c1c"/></g><g transform="translate(822.414 441.663)"><path d="M565.231,592.885a8.747,8.747,0,1,1,9.048-8.741A8.908,8.908,0,0,1,565.231,592.885Zm0-13.63a4.9,4.9,0,1,0,5.194,4.888A5.054,5.054,0,0,0,565.231,579.255Z" transform="translate(-556.184 -575.401)" fill="#1c1c1c"/></g><g transform="translate(802.683 375.306)"><path d="M641.281,425.228H512.314a1.927,1.927,0,1,1,0-3.853H641.281a1.927,1.927,0,1,1,0,3.853Z" transform="translate(-510.387 -421.375)" fill="#1c1c1c"/></g><g transform="translate(808.472 394.714)"><path d="M643.85,470.277h-118.1a1.927,1.927,0,0,1,0-3.853h118.1a1.927,1.927,0,1,1,0,3.853Z" transform="translate(-523.822 -466.424)" fill="#1c1c1c"/></g><g transform="translate(833.018 360.166)"><path d="M582.725,446.738a1.927,1.927,0,0,1-1.927-1.927V388.16a1.927,1.927,0,0,1,3.854,0v56.652A1.927,1.927,0,0,1,582.725,446.738Z" transform="translate(-580.798 -386.233)" fill="#1c1c1c"/></g><g transform="translate(870.171 360.166)"><path d="M668.963,446.738a1.927,1.927,0,0,1-1.927-1.927V388.16a1.927,1.927,0,1,1,3.853,0v56.652A1.927,1.927,0,0,1,668.963,446.738Z" transform="translate(-667.036 -386.233)" fill="#1c1c1c"/></g><g transform="translate(907.1 360.166)"><path d="M754.681,446.738a1.927,1.927,0,0,1-1.927-1.927V388.16a1.927,1.927,0,1,1,3.853,0v56.652A1.927,1.927,0,0,1,754.681,446.738Z" transform="translate(-752.754 -386.233)" fill="#1c1c1c"/></g><g transform="translate(795.897 356.984)"><path d="M618.441,439.519H513.54a2.011,2.011,0,0,1-1.927-1.436l-16.9-56.652a2.01,2.01,0,0,1,1.927-2.585H635.38a2.01,2.01,0,0,1,1.926,2.587l-16.939,56.652A2.011,2.011,0,0,1,618.441,439.519Zm-103.4-4.021H616.944l15.737-52.631H499.343Z" transform="translate(-494.635 -378.846)" fill="#1c1c1c"/></g><g transform="translate(807.97 413.636)"><path d="M643.314,529.708H529.49a2.007,2.007,0,0,1-1.1-.327c-3.684-2.4-5.611-5.265-5.729-8.5-.2-5.629,5.372-9.941,5.61-10.122a2.01,2.01,0,0,1,2.44,3.2h0c-1.16.893-4.145,3.853-4.031,6.791.067,1.731,1.219,3.392,3.425,4.945H643.314a2.01,2.01,0,1,1,0,4.021Z" transform="translate(-522.657 -510.344)" fill="#1c1c1c"/></g><g transform="translate(765.544 329.118)"><path d="M456.543,346.053a2.012,2.012,0,0,1-1.932-1.457l-6.424-22.4L428.2,318.582V323.7l19.053,2.431a2.01,2.01,0,0,1-.509,3.988l-20.81-2.656a2.011,2.011,0,0,1-1.756-1.995v-9.293a2.011,2.011,0,0,1,2.368-1.978l23.583,4.26a2.011,2.011,0,0,1,1.575,1.424l6.769,23.6a2.012,2.012,0,0,1-1.934,2.566Z" transform="translate(-424.181 -314.166)" fill="#1c1c1c"/></g><g transform="translate(897.707 438.73)"><path d="M740.085,586.244a8.831,8.831,0,1,1,9.131-8.826A8.993,8.993,0,0,1,740.085,586.244Zm0-13.63a4.814,4.814,0,1,0,5.11,4.8A4.971,4.971,0,0,0,740.085,572.614Z" transform="translate(-730.953 -568.593)" fill="#1c1c1c"/></g><g transform="translate(820.142 438.481)"><path d="M560.043,585.665a8.831,8.831,0,1,1,9.132-8.825A8.993,8.993,0,0,1,560.043,585.665Zm0-13.63a4.814,4.814,0,1,0,5.111,4.8A4.97,4.97,0,0,0,560.043,572.035Z" transform="translate(-550.912 -568.014)" fill="#1c1c1c"/></g><g transform="translate(800.412 372.124)"><path d="M636.093,418.009H507.126a2.01,2.01,0,1,1,0-4.021H636.093a2.01,2.01,0,0,1,0,4.021Z" transform="translate(-505.115 -413.988)" fill="#1c1c1c"/></g><g transform="translate(806.2 391.532)"><path d="M638.663,463.058h-118.1a2.01,2.01,0,1,1,0-4.021h118.1a2.01,2.01,0,0,1,0,4.021Z" transform="translate(-518.55 -459.037)" fill="#1c1c1c"/></g><g transform="translate(830.747 356.984)"><path d="M577.537,439.519a2.01,2.01,0,0,1-2.01-2.011V380.857a2.01,2.01,0,1,1,4.021,0v56.652A2.011,2.011,0,0,1,577.537,439.519Z" transform="translate(-575.527 -378.846)" fill="#1c1c1c"/></g><g transform="translate(867.899 356.984)"><path d="M663.775,439.519a2.011,2.011,0,0,1-2.011-2.011V380.857a2.011,2.011,0,0,1,4.021,0v56.652A2.011,2.011,0,0,1,663.775,439.519Z" transform="translate(-661.764 -378.846)" fill="#1c1c1c"/></g><g transform="translate(904.828 356.984)"><path d="M749.493,439.519a2.011,2.011,0,0,1-2.01-2.011V380.857a2.011,2.011,0,0,1,4.021,0v56.652A2.011,2.011,0,0,1,749.493,439.519Z" transform="translate(-747.482 -378.846)" fill="#1c1c1c"/></g><path d="M828.5,302.617a2.112,2.112,0,0,1-2.112-2.112V283.6a2.112,2.112,0,0,1,4.224,0v16.9A2.112,2.112,0,0,1,828.5,302.617Z" transform="translate(107.899 41.663)" fill="#1c1c1c"/><path d="M821.278,309.835h-16.9a2.112,2.112,0,1,1,0-4.224h16.9a2.112,2.112,0,1,1,0,4.224Z" transform="translate(123.567 25.994)" fill="#1c1c1c"/><g transform="translate(717.419 430.939)"><path d="M366.37,553.525H313.982a1.508,1.508,0,1,1,0-3.016H366.37a1.508,1.508,0,1,1,0,3.016Z" transform="translate(-312.474 -550.509)" fill="#1c1c1c"/></g><g transform="translate(706.305 395.862)"><path d="M340.573,472.1H288.185a1.508,1.508,0,1,1,0-3.016h52.388a1.508,1.508,0,1,1,0,3.016Z" transform="translate(-286.677 -469.088)" fill="#1c1c1c"/></g><g transform="translate(693.356 413.04)"><path d="M310.515,511.977H258.127a1.508,1.508,0,0,1,0-3.016h52.388a1.508,1.508,0,0,1,0,3.016Z" transform="translate(-256.619 -508.961)" fill="#1c1c1c"/></g><g transform="translate(762.811 413.04)"><path d="M434.11,511.977H419.344a1.508,1.508,0,0,1,0-3.016H434.11a1.508,1.508,0,1,1,0,3.016Z" transform="translate(-417.836 -508.961)" fill="#1c1c1c"/></g><g transform="translate(715.961 429.481)"><path d="M362.985,550.14H310.6a1.508,1.508,0,0,1,0-3.016h52.388a1.508,1.508,0,0,1,0,3.016Z" transform="translate(-309.089 -547.124)" fill="#1c1c1c"/></g><g transform="translate(704.847 394.403)"><path d="M337.188,468.719H284.8a1.508,1.508,0,1,1,0-3.016h52.388a1.508,1.508,0,0,1,0,3.016Z" transform="translate(-283.292 -465.703)" fill="#1c1c1c"/></g><g transform="translate(691.898 411.582)"><path d="M307.131,508.592H254.743a1.508,1.508,0,0,1,0-3.016h52.388a1.508,1.508,0,0,1,0,3.016Z" transform="translate(-253.235 -505.576)" fill="#1c1c1c"/></g><g transform="translate(761.352 411.582)"><path d="M430.725,508.592H415.959a1.508,1.508,0,1,1,0-3.016h14.766a1.508,1.508,0,1,1,0,3.016Z" transform="translate(-414.451 -505.576)" fill="#1c1c1c"/></g><g transform="translate(968.838 314.915)"><g transform="translate(17.414 0)"><path d="M986.732,337.218a1.508,1.508,0,0,1-1.508-1.508v-8.9a1.508,1.508,0,1,1,3.016,0v8.9A1.508,1.508,0,0,1,986.732,337.218Z" transform="translate(-985.224 -325.299)" fill="#1c1c1c"/></g><g transform="translate(17.414 25.924)"><path d="M986.732,397.392a1.508,1.508,0,0,1-1.508-1.508v-8.9a1.508,1.508,0,0,1,3.016,0v8.9A1.508,1.508,0,0,1,986.732,397.392Z" transform="translate(-985.224 -385.473)" fill="#1c1c1c"/></g><g transform="translate(23.432 5.1)"><path d="M1000.7,346.45a1.508,1.508,0,0,1-1.067-2.574l6.3-6.3a1.508,1.508,0,0,1,2.132,2.133l-6.3,6.3A1.5,1.5,0,0,1,1000.7,346.45Z" transform="translate(-999.192 -337.138)" fill="#1c1c1c"/></g><g transform="translate(5.101 23.431)"><path d="M958.15,389a1.508,1.508,0,0,1-1.066-2.574l6.3-6.3a1.508,1.508,0,1,1,2.132,2.133l-6.3,6.3A1.5,1.5,0,0,1,958.15,389Z" transform="translate(-956.643 -379.687)" fill="#1c1c1c"/></g><g transform="translate(25.924 17.414)"><path d="M1015.389,368.736h-8.9a1.508,1.508,0,1,1,0-3.016h8.9a1.508,1.508,0,0,1,0,3.016Z" transform="translate(-1004.977 -365.72)" fill="#1c1c1c"/></g><g transform="translate(0 17.414)"><path d="M955.215,368.736h-8.9a1.508,1.508,0,1,1,0-3.016h8.9a1.508,1.508,0,0,1,0,3.016Z" transform="translate(-944.803 -365.72)" fill="#1c1c1c"/></g><g transform="translate(23.432 23.431)"><path d="M1007,389a1.5,1.5,0,0,1-1.066-.442l-6.3-6.3a1.508,1.508,0,1,1,2.132-2.133l6.3,6.3A1.508,1.508,0,0,1,1007,389Z" transform="translate(-999.192 -379.687)" fill="#1c1c1c"/></g><g transform="translate(5.101 5.1)"><path d="M964.446,346.45a1.5,1.5,0,0,1-1.066-.442l-6.3-6.3a1.508,1.508,0,0,1,2.133-2.133l6.3,6.3a1.508,1.508,0,0,1-1.066,2.574Z" transform="translate(-956.643 -337.138)" fill="#1c1c1c"/></g></g><g transform="translate(986.109 314.225)"><path d="M985.814,334.445a.922.922,0,0,1-.922-.921v-8.9a.921.921,0,1,1,1.843,0v8.9A.922.922,0,0,1,985.814,334.445Z" transform="translate(-984.892 -323.698)" fill="#1c1c1c"/></g><g transform="translate(986.109 340.149)"><path d="M985.814,394.619a.922.922,0,0,1-.922-.921v-8.9a.921.921,0,1,1,1.843,0v8.9A.922.922,0,0,1,985.814,394.619Z" transform="translate(-984.892 -383.872)" fill="#1c1c1c"/></g><g transform="translate(992.127 319.326)"><path d="M999.782,343.676a.921.921,0,0,1-.651-1.573l6.3-6.3a.921.921,0,1,1,1.3,1.3l-6.3,6.3A.917.917,0,0,1,999.782,343.676Z" transform="translate(-998.86 -335.537)" fill="#1c1c1c"/></g><g transform="translate(973.796 337.657)"><path d="M957.232,386.225a.922.922,0,0,1-.652-1.573l6.3-6.3a.921.921,0,1,1,1.3,1.3l-6.3,6.3A.918.918,0,0,1,957.232,386.225Z" transform="translate(-956.311 -378.086)" fill="#1c1c1c"/></g><g transform="translate(994.62 331.639)"><path d="M1014.471,365.962h-8.9a.921.921,0,1,1,0-1.843h8.9a.921.921,0,0,1,0,1.843Z" transform="translate(-1004.646 -364.119)" fill="#1c1c1c"/></g><g transform="translate(968.695 331.639)"><path d="M954.3,365.962h-8.9a.921.921,0,1,1,0-1.843h8.9a.921.921,0,1,1,0,1.843Z" transform="translate(-944.472 -364.119)" fill="#1c1c1c"/></g><g transform="translate(992.127 337.657)"><path d="M1006.078,386.225a.917.917,0,0,1-.651-.27l-6.3-6.3a.921.921,0,0,1,1.3-1.3l6.3,6.3a.921.921,0,0,1-.651,1.573Z" transform="translate(-998.86 -378.087)" fill="#1c1c1c"/></g><g transform="translate(973.796 319.326)"><path d="M963.528,343.676a.92.92,0,0,1-.651-.27l-6.3-6.3a.922.922,0,1,1,1.3-1.3l6.3,6.3a.921.921,0,0,1-.652,1.573Z" transform="translate(-956.311 -335.537)" fill="#1c1c1c"/></g></g></svg>