<svg xmlns="http://www.w3.org/2000/svg" width="19.235" height="17.667" viewBox="0 0 19.235 17.667">
  <g id="Group_13199" data-name="Group 13199" transform="translate(-1666.6 -108.333)">
    <path id="Path_4597" data-name="Path 4597" d="M23.284,8.342,23.2,8.26a.854.854,0,0,0-.6-.267H8.6l-.021-.185A2.146,2.146,0,0,0,6.439,6H5A.8.8,0,1,0,5,7.6H6.46a.532.532,0,0,1,.534.452l1.233,7.4a.73.73,0,0,0,.041.205l.205,1.253A2.6,2.6,0,0,0,11,19.045h9.532a.8.8,0,1,0,0-1.6H10.979a.914.914,0,0,1-.924-.781l-.082-.452H20.819a.867.867,0,0,0,.452-.062.85.85,0,0,0,.411-.514L23.407,9.04A.866.866,0,0,0,23.284,8.342Z" transform="translate(1662.4 102.333)" fill="#fff"/>
    <path id="Path_4598" data-name="Path 4598" d="M29.519,70.3a2.229,2.229,0,1,0,2.219,2.239A2.222,2.222,0,0,0,29.519,70.3Zm0,1.623a.579.579,0,0,1,.575.6.6.6,0,0,1-.6.6.579.579,0,0,1-.575-.6A.6.6,0,0,1,29.519,71.923Z" transform="translate(1644.045 51.242)" fill="#fff"/>
    <path id="Path_4599" data-name="Path 4599" d="M61.919,70.3a2.229,2.229,0,1,0,2.219,2.239A2.254,2.254,0,0,0,61.919,70.3ZM61.9,71.923a.583.583,0,0,1,.6.6.6.6,0,1,1-1.191,0A.571.571,0,0,1,61.9,71.923Z" transform="translate(1618.301 51.242)" fill="#fff"/>
  </g>
</svg>
