<svg id="noun_Present_2433285" xmlns="http://www.w3.org/2000/svg" width="29.78" height="37.41" viewBox="0 0 29.78 37.41">
  <path id="Path_4608" data-name="Path 4608" d="M29.676,9.523H18.47v8.6H31.057V10.9A1.383,1.383,0,0,0,29.676,9.523Z" transform="translate(-1.278 1.026)" fill="#be1622"/>
  <path id="Path_4609" data-name="Path 4609" d="M3.764,10.9v7.214H16.35v-8.6H5.145A1.381,1.381,0,0,0,3.764,10.9Z" transform="translate(-3.764 1.026)" fill="#be1622"/>
  <path id="Path_4610" data-name="Path 4610" d="M5.4,32.179a2.763,2.763,0,0,0,2.763,2.763h7.905V18.058H5.4Z" transform="translate(-3.487 2.469)" fill="#be1622"/>
  <path id="Path_4611" data-name="Path 4611" d="M18.47,34.942h7.905a2.763,2.763,0,0,0,2.763-2.763V18.058H18.47Z" transform="translate(-1.278 2.469)" fill="#be1622"/>
  <path id="Path_4612" data-name="Path 4612" d="M26.694,4.491A3.519,3.519,0,0,0,23.72.541,4.023,4.023,0,0,0,23.157.5C20.27.5,18.615,3.694,17.79,6.039,16.963,3.694,15.31.5,12.423.5a4,4,0,0,0-.563.041A3.517,3.517,0,0,0,8.885,4.49c.172,2.433,2.294,5.05,6.542,5.05h0a12.283,12.283,0,0,0,2.363-.247,12.292,12.292,0,0,0,2.363.247C24.4,9.542,26.522,6.924,26.694,4.491ZM15.427,8.16h0c-3.366,0-5.036-1.952-5.165-3.767a2.155,2.155,0,0,1,1.793-2.484,2.624,2.624,0,0,1,.368-.026c2.473,0,3.982,3.964,4.535,6.159A10.563,10.563,0,0,1,15.427,8.16Zm7.73-6.278a2.636,2.636,0,0,1,.368.026,2.155,2.155,0,0,1,1.791,2.485c-.129,1.814-1.8,3.767-5.164,3.767a10.414,10.414,0,0,1-1.531-.12C19.174,5.846,20.683,1.882,23.157,1.882Z" transform="translate(-2.9 -0.5)" fill="#be1622"/>
</svg>
