<svg xmlns="http://www.w3.org/2000/svg" width="8.487" height="10.662" viewBox="0 0 8.487 10.662">
  <g id="noun_Present_2433285" transform="translate(-3.764 -0.5)">
    <path id="Path_4608" data-name="Path 4608" d="M21.663,9.523H18.47v2.45h3.587V9.917A.394.394,0,0,0,21.663,9.523Z" transform="translate(-9.806 -6.017)" fill="#fff"/>
    <path id="Path_4609" data-name="Path 4609" d="M3.764,9.917v2.056H7.351V9.523H4.157A.394.394,0,0,0,3.764,9.917Z" transform="translate(0 -6.017)" fill="#fff"/>
    <path id="Path_4610" data-name="Path 4610" d="M5.4,22.082a.788.788,0,0,0,.787.787H8.445V18.058H5.4Z" transform="translate(-1.094 -11.708)" fill="#fff"/>
    <path id="Path_4611" data-name="Path 4611" d="M18.47,22.87h2.253a.787.787,0,0,0,.787-.787V18.058H18.47Z" transform="translate(-9.806 -11.708)" fill="#fff"/>
    <path id="Path_4612" data-name="Path 4612" d="M13.952,1.637A1,1,0,0,0,13.1.512,1.146,1.146,0,0,0,12.944.5c-.823,0-1.294.91-1.53,1.579C11.179,1.41,10.707.5,9.885.5a1.139,1.139,0,0,0-.161.012,1,1,0,0,0-.848,1.125,1.679,1.679,0,0,0,1.864,1.439h0a3.5,3.5,0,0,0,.673-.07,3.5,3.5,0,0,0,.673.07A1.678,1.678,0,0,0,13.952,1.637ZM10.741,2.683h0c-.959,0-1.435-.556-1.472-1.073A.614.614,0,0,1,9.78.9a.748.748,0,0,1,.1-.007c.7,0,1.135,1.13,1.292,1.755A3.01,3.01,0,0,1,10.741,2.683Zm2.2-1.789a.751.751,0,0,1,.1.007.614.614,0,0,1,.51.708c-.037.517-.513,1.073-1.472,1.073a2.968,2.968,0,0,1-.436-.034C11.809,2.024,12.239.894,12.944.894Z" transform="translate(-3.407)" fill="#fff"/>
  </g>
</svg>
