<svg xmlns="http://www.w3.org/2000/svg" width="20.869" height="16.921" viewBox="0 0 20.869 16.921">
  <g id="list" transform="translate(0 -37.333)">
    <g id="Group_13400" data-name="Group 13400" transform="translate(0 37.333)">
      <g id="Group_13399" data-name="Group 13399" transform="translate(0 0)">
        <path id="Path_4663" data-name="Path 4663" d="M1.692,37.333a1.692,1.692,0,1,0,1.692,1.692A1.69,1.69,0,0,0,1.692,37.333Z" transform="translate(0 -37.333)" fill="#fff"/>
        <path id="Path_4664" data-name="Path 4664" d="M1.692,165.333a1.692,1.692,0,1,0,1.692,1.692A1.69,1.69,0,0,0,1.692,165.333Z" transform="translate(0 -158.565)" fill="#fff"/>
        <path id="Path_4665" data-name="Path 4665" d="M1.692,293.333a1.692,1.692,0,1,0,1.692,1.692A1.69,1.69,0,0,0,1.692,293.333Z" transform="translate(0 -279.796)" fill="#fff"/>
        <rect id="Rectangle_2213" data-name="Rectangle 2213" width="15.793" height="2.256" transform="translate(5.076 14.101)" fill="#fff"/>
        <rect id="Rectangle_2214" data-name="Rectangle 2214" width="15.793" height="2.256" transform="translate(5.076 0.564)" fill="#fff"/>
        <rect id="Rectangle_2215" data-name="Rectangle 2215" width="15.793" height="2.256" transform="translate(5.076 7.332)" fill="#fff"/>
      </g>
    </g>
  </g>
</svg>
